<svg width="52" height="35" viewBox="0 0 52 35" fill="none" xmlns="http://www.w3.org/2000/svg">
<path fill-rule="evenodd" clip-rule="evenodd" d="M49.6483 25.9391H50.6593C51.1289 25.9391 51.5097 26.3123 51.5097 26.7725V33.4391C51.5097 33.8993 51.1289 34.2725 50.6593 34.2725H1.3396C0.870001 34.2725 0.489258 33.8993 0.489258 33.4391V26.7725C0.489258 26.3123 0.870001 25.9391 1.3396 25.9391H2.35062L5.04115 13.4143C5.38328 11.8677 6.58779 10.6433 8.1527 10.2519C8.15181 10.2311 8.14977 10.21 8.14773 10.1889C8.14502 10.1609 8.14232 10.133 8.14232 10.1058C8.14481 8.12663 9.56523 6.42131 11.5437 6.02255V5.93913C11.5466 3.63933 13.4482 1.77531 15.7954 1.77247C17.3574 1.76067 18.8085 2.56185 19.6082 3.87696C20.2796 3.57707 21.0104 3.42774 21.7478 3.43913C22.4407 3.43262 23.1275 3.56568 23.7657 3.83098C24.6658 1.55803 26.9129 0.0724325 29.4008 0.105798C32.0752 0.0406943 34.4576 1.75293 35.1975 4.27247H35.3532C36.6731 4.34367 37.8403 5.13713 38.3701 6.32447C39.0253 6.03842 39.739 5.90658 40.4552 5.93913C42.5852 5.93913 43.8566 7.49675 43.8566 10.1058C43.8566 10.1295 43.854 10.1538 43.8514 10.1782C43.8488 10.2028 43.8462 10.2276 43.8462 10.2519C45.4111 10.6433 46.6156 11.8677 46.9578 13.4143L49.6483 25.9391ZM12.4187 7.61289C12.3883 7.60941 12.3568 7.6058 12.3413 7.6058C10.952 7.63143 9.84009 8.7439 9.843 10.1058H42.1559C42.1559 7.6058 40.8763 7.6058 40.4552 7.6058C39.825 7.53337 39.1905 7.70549 38.6881 8.08594C38.571 8.17098 38.4577 8.24992 38.3377 8.32113C38.0936 8.46273 37.7934 8.47616 37.5372 8.35612C37.281 8.23609 37.1029 7.99886 37.0622 7.72339C36.9426 6.8986 36.1695 5.93913 35.3532 5.93913H34.5029C34.0769 5.93913 33.7165 5.62989 33.66 5.21607C33.3353 3.17668 31.5055 1.69719 29.4008 1.77246C27.3086 1.74968 25.5058 3.21289 25.1387 5.23194C25.0935 5.52491 24.8921 5.7723 24.6106 5.88094C24.3295 5.98999 24.0102 5.94442 23.7723 5.76091C23.1977 5.31535 22.4806 5.08301 21.7478 5.1058C21.0166 5.07609 20.2987 5.30762 19.7282 5.75684C19.4994 5.93628 19.193 5.98755 18.9165 5.89275C18.6399 5.79834 18.4328 5.57089 18.3676 5.29094C18.0479 4.16667 16.9858 3.4021 15.7954 3.43913C14.3866 3.43913 13.2444 4.55852 13.2444 5.93913C13.2481 6.15398 13.2801 6.36719 13.3403 6.57349C13.4096 6.82943 13.3507 7.10205 13.1812 7.30835C13.0135 7.51587 12.754 7.63143 12.4841 7.61923C12.4706 7.61885 12.4451 7.61592 12.4187 7.61289L12.4187 7.61289ZM6.70529 13.7577C6.95774 12.603 7.997 11.7765 9.20192 11.7725H42.797C44.0019 11.7765 45.0412 12.603 45.2936 13.7577L46.2997 18.4391H40.3344C39.9528 16.969 38.6018 15.9399 37.0539 15.9399C35.506 15.9399 34.1549 16.969 33.7733 18.4391H30.166C29.7637 16.4974 28.0215 15.1017 25.9995 15.1017C23.9774 15.1017 22.2352 16.4974 21.8329 18.4391H18.2256C17.844 16.969 16.4929 15.9399 14.945 15.9399C13.3972 15.9399 12.0461 16.969 11.6645 18.4391H5.69925L6.70529 13.7577ZM37.0539 20.9391C37.9931 20.9391 38.7546 20.1933 38.7546 19.2725C38.7546 18.3521 37.9931 17.6058 37.0539 17.6058C36.1147 17.6058 35.3532 18.3521 35.3532 19.2725C35.3532 20.1933 36.1147 20.9391 37.0539 20.9391ZM28.5505 19.2725C28.5505 20.6535 27.4083 21.7725 25.9995 21.7725C24.5907 21.7725 23.4484 20.6535 23.4484 19.2725C23.4484 17.8918 24.5907 16.7725 25.9995 16.7725C27.4083 16.7725 28.5505 17.8918 28.5505 19.2725ZM14.945 20.9391C15.8842 20.9391 16.6457 20.1933 16.6457 19.2725C16.6457 18.3521 15.8842 17.6058 14.945 17.6058C14.0058 17.6058 13.2444 18.3521 13.2444 19.2725C13.2444 20.1933 14.0058 20.9391 14.945 20.9391ZM5.34134 20.1058H11.6645C12.0461 21.5759 13.3972 22.605 14.945 22.605C16.4929 22.605 17.844 21.5759 18.2256 20.1058H21.8329C22.2352 22.0479 23.9774 23.4436 25.9995 23.4436C28.0215 23.4436 29.7637 22.0479 30.166 20.1058H33.7742C34.1558 21.5759 35.5068 22.605 37.0547 22.605C38.6026 22.605 39.9537 21.5759 40.3353 20.1058H46.6584L47.9119 25.9391H4.08784L5.34134 20.1058ZM20.0471 29.2725H49.809V27.6058H2.18994V29.2725H11.5437C12.0133 29.2725 12.394 29.6456 12.394 30.1058C12.394 30.566 12.0133 30.9391 11.5437 30.9391H2.18994V32.6058H49.809V30.9391H20.0471C19.5775 30.9391 19.1967 30.566 19.1967 30.1058C19.1967 29.6456 19.5775 29.2725 20.0471 29.2725Z" fill="black"/>
</svg>
