<svg width="62" height="60" viewBox="0 0 62 60" fill="none" xmlns="http://www.w3.org/2000/svg">
<path fill-rule="evenodd" clip-rule="evenodd" d="M50.4356 19.4043C51.1927 20.5398 50.5284 22.278 48.9522 23.2866C47.3761 24.2952 45.4856 24.1914 44.7285 23.056C43.972 21.9205 44.6363 20.1823 46.2125 19.1737C47.7881 18.1651 49.6791 18.2683 50.4356 19.4043Z" stroke="black" stroke-width="1.7" stroke-linecap="round" stroke-linejoin="round"/>
<path fill-rule="evenodd" clip-rule="evenodd" d="M48.092 14.5567C48.9682 15.8712 48.199 17.8831 46.3755 19.0492C44.5519 20.2164 42.3635 20.0976 41.4879 18.7831C40.6118 17.4691 41.3809 15.4578 43.2045 14.2906C45.0281 13.1234 47.2165 13.2427 48.092 14.5567Z" stroke="black" stroke-width="1.7" stroke-linecap="round" stroke-linejoin="round"/>
<path fill-rule="evenodd" clip-rule="evenodd" d="M52.6241 23.8272C53.3807 24.9627 52.7168 26.7014 51.1407 27.71C49.5645 28.7181 47.6735 28.6149 46.917 27.4794C46.1604 26.3439 46.8248 24.6052 48.4004 23.5966C49.9766 22.5885 51.8676 22.6917 52.6241 23.8272Z" stroke="black" stroke-width="1.7" stroke-linecap="round" stroke-linejoin="round"/>
<path fill-rule="evenodd" clip-rule="evenodd" d="M53.4469 29.3128C53.7585 30.3816 52.8083 31.5854 51.3243 31.9999C49.8403 32.4155 48.3849 31.8848 48.0738 30.8155C47.7622 29.7466 48.7124 28.5429 50.1964 28.1278C51.6804 27.7128 53.1358 28.2434 53.4469 29.3128Z" stroke="black" stroke-width="1.7" stroke-linecap="round" stroke-linejoin="round"/>
<path d="M50.2691 32.1406C49.1396 33.9347 41.2138 39.3266 38.7084 40.6035C36.2018 41.8804 30.1879 46.8906 27.4817 49.3465C24.7748 51.8019 17.8586 56.4191 12.9469 54.553C8.03577 52.6863 5.42934 47.4476 9.63879 41.4223C9.63879 41.4223 11.4124 39.0132 12.1201 38.246C13.2975 36.9686 15.1567 35.4197 15.3734 35.2363C18.05 32.9627 20.6285 32.4186 22.1684 24.4933C23.7725 16.2422 28.885 12.2143 31.2906 11.5267C33.2953 9.16859 36.7032 3.37343 43.0182 5.43633C49.3332 7.49923 44.5889 13.7858 42.3165 14.768C40.8814 15.389 37.3045 16.7331 34.2976 15.8487" stroke="black" stroke-width="1.7" stroke-linecap="round" stroke-linejoin="round"/>
<path d="M22.416 23.8167C24.775 26.5479 32.1922 29.5033 36.851 29.2678" stroke="black" stroke-width="1.7" stroke-linecap="round" stroke-linejoin="round"/>
<path d="M39.2301 22.6254C37.1037 26.1636 35.6334 34.2179 38.7078 40.6034" stroke="black" stroke-width="1.7" stroke-linecap="round" stroke-linejoin="round"/>
<path d="M26.9343 49.252C26.9343 49.252 19.1112 41.3401 9.29004 41.9444" stroke="black" stroke-width="1.7" stroke-linecap="round" stroke-linejoin="round"/>
<path fill-rule="evenodd" clip-rule="evenodd" d="M16.482 35.8825C16.7827 35.6729 17.2002 35.7422 17.4136 36.0368C17.6275 36.3315 17.5568 36.7406 17.2561 36.9497C16.9555 37.1589 16.5386 37.0901 16.3246 36.7954C16.1112 36.5008 16.1814 36.0922 16.482 35.8825" fill="#1E2432"/>
<path fill-rule="evenodd" clip-rule="evenodd" d="M17.7796 37.6634C17.9327 37.3349 18.3293 37.1903 18.6645 37.3403C19.0003 37.4914 19.1473 37.8796 18.9942 38.2086C18.8406 38.5371 18.444 38.6817 18.1088 38.5306C17.773 38.3806 17.626 37.9919 17.7796 37.6634" fill="#1E2432"/>
<path fill-rule="evenodd" clip-rule="evenodd" d="M19.8106 38.5702C19.776 38.21 20.0454 37.8906 20.4124 37.8568C20.78 37.8224 21.1053 38.0874 21.1404 38.4471C21.175 38.8062 20.9056 39.1261 20.5381 39.1605C20.171 39.1939 19.8452 38.9299 19.8106 38.5702" fill="#1E2432"/>
<path fill-rule="evenodd" clip-rule="evenodd" d="M22.0328 38.3597C21.8189 38.065 21.8897 37.6564 22.1903 37.4473C22.4909 37.2376 22.9084 37.307 23.1213 37.6016C23.3352 37.8962 23.265 38.3043 22.9644 38.514C22.6632 38.7236 22.2468 38.6548 22.0328 38.3597" fill="#1E2432"/>
<path fill-rule="evenodd" clip-rule="evenodd" d="M23.8501 37.0891C23.5149 36.9386 23.3674 36.5498 23.5204 36.2214C23.6746 35.8923 24.0701 35.7482 24.4064 35.8988C24.7416 36.0488 24.8892 36.4375 24.735 36.766C24.582 37.095 24.1853 37.2391 23.8501 37.0891" fill="#1E2432"/>
<path fill-rule="evenodd" clip-rule="evenodd" d="M24.775 35.0981C24.4075 35.132 24.0816 34.868 24.047 34.5078C24.0119 34.1481 24.2818 33.8287 24.6494 33.7949C25.0159 33.761 25.3423 34.025 25.3768 34.3846C25.4114 34.7449 25.142 35.0642 24.775 35.0981" fill="#1E2432"/>
<path fill-rule="evenodd" clip-rule="evenodd" d="M24.5605 32.9203C24.2599 33.13 23.8429 33.0611 23.6295 32.7665C23.4156 32.4714 23.4863 32.0628 23.787 31.8536C24.0876 31.6439 24.504 31.7133 24.718 32.0079C24.9319 32.3025 24.8611 32.7111 24.5605 32.9203" fill="#1E2432"/>
<path fill-rule="evenodd" clip-rule="evenodd" d="M23.2638 31.1399C23.1102 31.4684 22.7135 31.613 22.3783 31.463C22.0426 31.3119 21.8956 30.9238 22.0492 30.5947C22.2022 30.2662 22.5989 30.1216 22.9341 30.2722C23.2698 30.4227 23.4168 30.8114 23.2638 31.1399" fill="#1E2432"/>
</svg>
