<svg width="52" height="45" viewBox="0 0 52 45" fill="none" xmlns="http://www.w3.org/2000/svg">
<path fill-rule="evenodd" clip-rule="evenodd" d="M51.1922 34.347L51.3864 35.3744C51.4551 35.7381 51.3751 36.1059 51.1611 36.4103C50.9467 36.7155 50.6234 36.9205 50.2509 36.9875L46.3004 37.6987L48.4022 38.1712C48.9527 38.2948 49.3747 38.7257 49.4773 39.2688C49.5056 39.419 49.5082 39.5722 49.485 39.7243L49.3234 40.7864C49.2675 41.1551 49.0575 41.4913 48.7473 41.7085C48.506 41.8775 48.2211 41.9669 47.9237 41.9669C47.8399 41.9669 47.7553 41.9595 47.6728 41.945L41.7098 40.8948C41.8652 41.8484 41.5954 42.8154 40.9605 43.5598C40.3086 44.3245 39.3503 44.7634 38.3313 44.7638L8.47619 44.7724C4.07212 44.7724 0.489258 41.5176 0.489258 37.517C0.489258 35.4833 1.41638 33.6442 2.90562 32.3262V10.9913C2.90562 9.10876 4.44936 7.57455 6.35909 7.54229V5.99219C5.77449 5.89307 5.32814 5.39375 5.32814 4.79297V1.2804C5.32814 0.608661 5.88578 0.0620728 6.57133 0.0620728H12.6372C13.3227 0.0620728 13.8804 0.608661 13.8804 1.2804V4.79297C13.8804 5.39375 13.434 5.89307 12.8494 5.99219V7.54248C14.7592 7.57484 16.303 9.10905 16.303 10.9915V13.725C16.4635 13.6751 16.6289 13.6342 16.7994 13.6052C17.5742 13.473 18.3805 13.5865 19.0844 13.9194C19.6332 13.3728 20.3492 12.9996 21.1273 12.8668C21.342 12.8302 21.5607 12.8116 21.7773 12.8116C22.7319 12.8116 23.6113 13.1608 24.2797 13.745L27.8912 10.1976C28.1308 9.96256 28.449 9.83312 28.7877 9.83312C29.1263 9.83312 29.4446 9.96256 29.6839 10.1975C30.5008 10.9999 31.0855 11.9448 31.44 12.9514C32.4105 12.3494 33.5347 12.0256 34.7098 12.0256C35.49 12.0256 36.2542 12.1695 36.9813 12.4533C37.0972 12.4984 37.2018 12.5658 37.2909 12.6531C37.3835 12.7453 37.4516 12.8482 37.497 12.9629C37.9191 14.0064 38.0259 15.1178 37.8447 16.1802C38.1055 16.1264 38.3756 16.0975 38.6526 16.0975C40.7561 16.0975 42.4792 17.7263 42.5825 19.7666C42.6744 19.7623 42.7666 19.7599 42.8592 19.7599C43.5833 19.7599 44.2927 19.8935 44.9677 20.1569C45.0834 20.2024 45.1853 20.2684 45.2724 20.3538C45.3603 20.4399 45.4281 20.541 45.4737 20.6543C46.0371 22.0469 45.9982 23.5675 45.4283 24.8958C45.8644 25.086 46.1697 25.5141 46.1697 26.0117C46.1697 27.133 46.0669 28.2346 45.8675 29.3131C46.0501 29.2898 46.2373 29.3003 46.4163 29.3471C46.7818 29.4422 47.0984 29.6822 47.2841 30.0053L47.826 30.9458C47.9032 31.08 47.9565 31.2234 47.985 31.3728C48.0873 31.9183 47.8501 32.4682 47.3808 32.7756L45.59 33.9488L49.5443 33.2369C49.6293 33.2216 49.7156 33.2139 49.8012 33.2139C50.4834 33.2139 51.0684 33.6904 51.1922 34.347ZM44.1742 21.4287C43.7497 21.2914 43.3082 21.2217 42.8592 21.2217C41.9014 21.2217 40.9926 21.5354 40.2523 22.1115C40.6173 22.4884 40.8949 22.9478 41.054 23.461L41.3932 23.1278C41.684 22.8419 42.1563 22.8414 42.448 23.1266C42.7397 23.4118 42.7403 23.8746 42.4493 24.1604L41.8081 24.7902H43.8175C44.4115 23.7817 44.5535 22.5607 44.1742 21.4287ZM38.6526 17.5593C39.9997 17.5593 41.0956 18.6365 41.0956 19.9606L41.0954 19.9808L41.0945 20.0123L41.0938 20.0338C40.3075 20.2844 39.5827 20.703 38.9646 21.2715C38.8663 21.235 38.7665 21.2011 38.6641 21.1733C38.4459 20.0181 37.6515 19.0922 36.6022 18.6597C37.0377 17.9985 37.7933 17.5593 38.6526 17.5593ZM36.194 13.7266C35.7142 13.5677 35.2164 13.4874 34.7097 13.4874C33.4682 13.4874 32.3003 13.9629 31.4213 14.8265C30.7531 15.4828 30.3212 16.3048 30.1466 17.1771C30.5507 17.2307 30.9352 17.3453 31.291 17.5101L33.1605 15.6738C33.4515 15.3879 33.9238 15.3874 34.2154 15.6726C34.5071 15.9577 34.5077 16.4206 34.2167 16.7063L32.5062 18.3864C32.7244 18.618 32.9149 18.8752 33.0704 19.154C33.5265 18.7936 34.0715 18.545 34.656 18.4453C34.7876 18.4229 34.9208 18.4085 35.0539 18.4009C35.2779 17.9046 35.6056 17.463 36.0095 17.1025C36.5008 16.0571 36.5796 14.8502 36.194 13.7266ZM28.9941 24.7902H28.3475C28.2386 24.5187 27.9694 24.3262 27.6536 24.3262C27.3378 24.3262 27.0686 24.5188 26.9597 24.7902H26.1991C26.3757 24.5084 26.34 24.1349 26.0907 23.891C25.7991 23.6058 25.3267 23.6063 25.0357 23.8921L24.3327 24.5825C24.2695 24.6445 24.221 24.7152 24.1853 24.7902H22.6671C22.0985 23.9352 21.7515 22.9259 21.7105 21.8401H33.5442C33.5031 22.9259 33.1561 23.9352 32.5876 24.7902H31.0077C30.9721 24.7152 30.9234 24.6444 30.8603 24.5824L30.1574 23.892C29.8663 23.6063 29.3942 23.6055 29.1026 23.8908C28.853 24.1347 28.8173 24.5083 28.9941 24.7902ZM29.6173 18.6035C28.4909 18.6035 27.5404 19.357 27.2593 20.3782H31.9755C31.6944 19.3571 30.7439 18.6035 29.6173 18.6035ZM28.7846 11.3898C29.4941 12.1412 29.9632 13.0334 30.1933 13.9712C29.8125 14.3768 29.4961 14.8249 29.2466 15.3018C29.1333 15.2338 29.0005 15.1939 28.858 15.1939H27.864C27.4521 15.1939 27.1181 15.5212 27.1181 15.9249C27.1181 16.3286 27.4521 16.6559 27.864 16.6559H28.736C28.6869 16.8578 28.6488 17.0621 28.6212 17.2679C28.325 17.3441 28.0422 17.4527 27.7774 17.5909C27.2802 16.7501 26.457 16.1235 25.4815 15.8721L25.4804 15.866C25.4219 15.5352 25.3199 15.2213 25.1807 14.9296L28.7846 11.3898ZM15.202 17.6196C15.2238 17.743 15.2569 17.866 15.3007 17.9859C15.4309 18.3423 15.2617 18.7372 14.9108 18.8959C13.9772 19.3181 13.4474 20.3056 13.6229 21.2975C13.6965 21.7136 13.8848 22.0845 14.1522 22.3827C14.214 21.9438 14.3285 21.5077 14.5002 21.0834C14.5447 20.9719 14.6127 20.8703 14.7012 20.7835C14.7885 20.6979 14.8909 20.6318 15.0055 20.5869C15.681 20.3234 16.3904 20.1898 17.1146 20.1898C18.2704 20.1898 19.3734 20.5263 20.3092 21.151C20.4985 20.6981 20.9523 20.3782 21.4812 20.3782H25.7351C25.8511 19.6835 26.1565 19.0508 26.5971 18.5325C26.268 17.808 25.5581 17.2937 24.7242 17.2218C24.3395 17.1887 24.0442 16.8733 24.0435 16.4949C24.0433 16.3658 24.0321 16.2383 24.0105 16.116C23.8217 15.0482 22.8824 14.2734 21.7773 14.2734C21.6463 14.2734 21.5136 14.2846 21.3831 14.3069C20.7605 14.4131 20.2247 14.7566 19.8745 15.2743C19.7611 15.4418 19.5824 15.5561 19.3803 15.5905C19.1782 15.6248 18.9706 15.5762 18.8064 15.4559C18.4095 15.1654 17.9398 15.0118 17.4484 15.0118C17.3177 15.0118 17.1854 15.0231 17.0551 15.0453C15.8195 15.2561 14.9881 16.4109 15.202 17.6196ZM17.5243 24.5903L17.7278 24.7902H15.9363C15.5341 23.8758 15.473 22.835 15.7996 21.8588C16.2246 21.7212 16.6659 21.6516 17.1146 21.6516C18.2385 21.6516 19.2958 22.0821 20.0915 22.8637C20.1974 22.9677 20.2959 23.0767 20.3885 23.1893C20.5149 23.7501 20.7092 24.2859 20.9594 24.7901H19.8352L18.5804 23.5576C18.2893 23.2719 17.817 23.2711 17.5256 23.5564C17.2339 23.8417 17.2333 24.3046 17.5243 24.5903ZM11.6886 24.7902H14.3477C14.29 24.6052 14.2434 24.4171 14.2054 24.2275C13.6683 23.9706 13.2022 23.5915 12.845 23.1226C12.2418 23.4785 11.8071 24.0821 11.6886 24.7902ZM6.81997 1.52406H12.3885V4.5493H6.81997V1.52406ZM11.3576 7.54082V6.01129H7.85102V7.54082H11.3576ZM4.39754 13.9558H9.2413C9.65334 13.9558 9.98721 13.6285 9.98721 13.2248C9.98721 12.8211 9.65334 12.4938 9.2413 12.4938H4.39754V10.9913C4.39754 9.89482 5.30497 9.00281 6.42035 9.00281H12.7883C13.9037 9.00281 14.8112 9.89482 14.8112 10.9913V12.4938H13.4184C13.0064 12.4938 12.6725 12.8211 12.6725 13.2248C12.6725 13.6285 13.0064 13.9558 13.4184 13.9558H14.8112V14.6047C13.9566 15.4258 13.5127 16.63 13.7319 17.8687L13.7332 17.8762C12.5365 18.6808 11.8989 20.1112 12.1528 21.5472C12.1677 21.631 12.1863 21.7134 12.2065 21.795C11.8339 21.9964 11.4992 22.2564 11.2124 22.5607H4.39754V13.9558ZM10.3462 24.0226H4.39744V31.2847C4.50127 31.2284 4.6061 31.1735 4.71281 31.1214C4.77358 30.7386 5.05195 30.1853 6.05894 29.7956C6.71723 29.5408 7.57672 29.4006 8.47877 29.4006C8.70235 29.4006 8.92214 29.4096 9.13647 29.4265C8.92314 28.3117 8.81304 27.1722 8.81304 26.0115C8.81304 25.3381 9.37168 24.7902 10.0582 24.7902H10.1839C10.2112 24.5254 10.2671 24.269 10.3462 24.0226ZM13.8428 33.0026C14.1114 33.2132 14.2756 33.3923 14.3708 33.5214L14.343 33.5216C13.9209 33.5216 13.1623 33.3549 12.2997 32.8869C11.9786 32.7126 11.6827 32.5156 11.444 32.3174C11.1658 32.0863 10.7577 32.0865 10.4796 32.3175C10.2409 32.5159 9.94514 32.7128 9.6243 32.8867C8.76153 33.3549 8.00298 33.5216 7.5809 33.5216L7.55295 33.5214C7.64803 33.3923 7.81223 33.2131 8.08096 33.0024C8.31577 32.8182 8.41473 32.5137 8.33188 32.2304C8.24894 31.947 8.0005 31.74 7.70163 31.7057C6.97372 31.6221 6.51345 31.4405 6.29793 31.3084C6.56795 31.1436 7.25061 30.8626 8.47907 30.8626C9.4965 30.8626 10.2401 31.0722 10.5968 31.2685C10.8236 31.3933 11.1002 31.3933 11.3271 31.2686C11.6839 31.0723 12.4276 30.8627 13.4451 30.8627C14.6736 30.8627 15.3562 31.1437 15.6261 31.3085C15.4107 31.4407 14.9503 31.6222 14.2222 31.7058C13.9233 31.7402 13.6748 31.9471 13.592 32.2306C13.5088 32.514 13.6078 32.8185 13.8428 33.0026ZM12.3763 42.0354L12.3507 41.8999C12.0507 40.3122 12.9539 38.7426 14.4981 38.1675L19.7737 36.2035C19.3513 34.5853 18.1667 33.2255 16.5769 32.4425C16.3467 32.6108 16.0595 32.756 15.719 32.8733C15.8541 33.0993 15.9481 33.3424 15.9703 33.5959C15.9999 33.933 15.8945 34.2531 15.6736 34.4974C15.382 34.8201 14.9343 34.9837 14.3431 34.9837H14.343C13.555 34.9836 12.5209 34.678 11.5771 34.166C11.3597 34.0479 11.1542 33.9235 10.962 33.7936C10.7696 33.9236 10.5641 34.048 10.3468 34.1659C9.40301 34.678 8.36898 34.9837 7.5809 34.9837C6.98954 34.9837 6.54179 34.8201 6.25009 34.4973C6.0293 34.253 5.92407 33.9329 5.95351 33.5959C5.97569 33.3424 6.06978 33.0993 6.20484 32.8733C5.8643 32.7561 5.57728 32.6109 5.34704 32.4425C3.34242 33.4298 1.98108 35.3339 1.98108 37.517C1.98108 40.7116 4.89482 43.3104 8.47619 43.3104H12.9135C12.6521 42.9358 12.465 42.5049 12.3763 42.0354ZM39.8155 42.6225C39.4478 43.0541 38.9064 43.3016 38.3306 43.3018L37.5477 43.3021L37.0586 40.7139C36.9835 40.3169 36.5945 40.0545 36.1892 40.1283C35.7842 40.2017 35.5166 40.5831 35.5916 40.9801L36.0306 43.3026L33.4641 43.3036L33.1334 41.5534C33.0583 41.1564 32.6692 40.8942 32.264 40.9677C31.8591 41.0412 31.5914 41.4226 31.6664 41.8196L31.9469 43.3042L25.9771 43.3064L25.5277 40.9294C25.4526 40.5324 25.0637 40.2703 24.6584 40.3438C24.2533 40.4173 23.9858 40.7988 24.0608 41.1958L24.4599 43.307L15.7433 43.3103H15.7427C14.8106 43.3103 14.0118 42.6622 13.8429 41.7688L13.8172 41.6333C13.6486 40.7409 14.1577 39.8582 15.0276 39.5342L17.9592 38.4428L18.1776 39.5979C18.2442 39.9499 18.5576 40.1959 18.9101 40.1959C18.9553 40.1959 19.001 40.1918 19.047 40.1835C19.4519 40.1099 19.7195 39.7285 19.6444 39.3316L19.3766 37.9151L23.7282 36.295C24.1133 36.1516 24.3069 35.7294 24.1606 35.352C24.0143 34.9745 23.583 34.7849 23.1985 34.9282L21.1735 35.6821C20.6054 33.7111 19.146 32.0646 17.2107 31.1213C17.15 30.7385 16.8716 30.1852 15.8647 29.7955C15.2064 29.5407 14.3469 29.4005 13.4449 29.4005C12.8241 29.4005 12.2312 29.4676 11.7079 29.5899V29.1484C11.7079 28.7447 11.374 28.4174 10.962 28.4174C10.7878 28.4174 10.6281 28.4763 10.5011 28.5744C10.3834 27.8119 10.3176 27.0374 10.3067 26.252H34.6023C35.0144 26.252 35.3482 25.9247 35.3482 25.521C35.3482 25.1173 35.0144 24.79 34.6023 24.79H34.2971C34.7721 23.8314 35.0404 22.7565 35.0404 21.6206C35.0404 20.9756 34.5369 20.4443 33.8952 20.384C34.1746 20.1258 34.5233 19.9517 34.9119 19.8854C35.0258 19.866 35.1414 19.8561 35.2555 19.8561C36.2186 19.8561 37.0369 20.5313 37.2013 21.4613C37.2203 21.569 37.23 21.6801 37.2301 21.7917C37.2306 22.1703 37.526 22.4859 37.9108 22.519C38.8022 22.5957 39.5315 23.2527 39.6844 24.1167C39.7249 24.3464 39.7199 24.5731 39.6792 24.79H38.8789C38.4668 24.79 38.133 25.1173 38.133 25.521C38.133 25.9247 38.4668 26.252 38.8789 26.252H44.6763C44.6578 27.593 44.4816 28.9028 44.1529 30.1737L40.1104 32.5123C39.8632 31.669 39.2885 30.9537 38.4968 30.5194C37.6087 30.0323 36.5534 29.9562 35.6016 30.3105L27.2762 33.4101C26.891 33.5535 26.6974 33.9757 26.8437 34.3531C26.99 34.7306 27.4213 34.9201 27.8059 34.7769L28.9027 34.3686L29.2432 36.1705C29.3097 36.5224 29.6232 36.7685 29.9758 36.7685C30.0208 36.7685 30.0666 36.7644 30.1125 36.7561C30.5175 36.6826 30.7851 36.3013 30.7101 35.9043L30.3202 33.8409L36.1312 31.6775C36.6697 31.4771 37.2662 31.5201 37.7682 31.7954C38.2692 32.0702 38.6163 32.5438 38.7206 33.0947L40.2296 41.0786C40.3336 41.6292 40.1827 42.1919 39.8155 42.6225ZM41.866 37.6036C41.8739 37.2569 42.129 36.9633 42.477 36.9007L49.905 35.5633L49.7395 34.6881L42.3096 36.0256C41.9617 36.0883 41.6166 35.9027 41.4836 35.5815C41.3505 35.2602 41.4661 34.8916 41.7602 34.6989L46.4901 31.6004L46.0229 30.7898L40.4153 34.0338L41.4217 39.3588L47.8598 40.4926L47.9985 39.5804L42.4449 38.3321C42.1001 38.2546 41.8583 37.9503 41.866 37.6036Z" fill="black"/>
</svg>
