<svg width="52" height="48" viewBox="0 0 52 48" fill="none" xmlns="http://www.w3.org/2000/svg">
<path fill-rule="evenodd" clip-rule="evenodd" d="M46.3122 21.7417C48.9188 22.1104 50.9665 24.1171 51.3427 26.6716C51.8113 29.8535 49.5591 32.8055 46.3122 33.2647C43.0652 33.724 40.0531 31.5168 39.5845 28.3348C39.1158 25.1528 41.3681 22.2009 44.615 21.7417V20.2323C44.615 16.9758 42.1406 14.3279 39.0993 14.3279C36.1446 14.3279 33.6684 16.8959 33.5836 20.0519V36.4003C33.5836 42.5483 28.8256 47.5571 22.9764 47.5571C17.1272 47.5571 12.3693 42.5541 12.3693 36.4003V34.9808C11.1388 34.9808 9.82355 34.1067 9.82355 31.6544V29.5629C4.37996 28.2015 0.489258 23.6169 0.489258 18.4153V16.6855H2.1864V5.87472C2.19202 3.85279 3.68106 2.12795 5.71477 1.78741C5.95067 1.07379 6.50033 0.501335 7.21271 0.227011C8.52736 -0.279123 10.0119 0.355077 10.5284 1.64343C11.0449 2.93179 10.3978 4.38668 9.08307 4.89281C7.76831 5.39894 6.28384 4.76485 5.76738 3.47639C4.65978 3.76859 3.88843 4.75071 3.88355 5.87472V16.6855H6.42926V18.4435C6.4945 21.3339 8.46891 23.8472 11.3035 24.6481C12.8219 25.1203 14.4522 25.1203 15.9706 24.6481C18.8084 23.8499 20.7873 21.3362 20.855 18.4435V16.6855H22.5521L22.514 5.86724C22.5051 4.75955 21.752 3.79032 20.6649 3.4872C20.3856 4.16807 19.8132 4.69291 19.1013 4.92067C17.7718 5.34603 16.3423 4.6346 15.9083 3.33179C15.4743 2.02888 16.2003 0.627946 17.5296 0.202686C18.8592 -0.222678 20.2887 0.488757 20.7226 1.79156C22.7344 2.14822 24.2013 3.85882 24.2136 5.86225L24.2493 16.6855H25.9464V18.4194C25.9464 23.6153 22.0583 28.1982 16.6121 29.5629V31.6544C16.6121 34.1067 15.2968 34.9808 14.0664 34.9808V36.4003C14.0664 41.6336 18.0632 45.8939 22.9764 45.8939C27.8897 45.8939 31.8864 41.6394 31.8864 36.4003V20.0119L31.9356 20.0036H31.8864C32.0027 15.9554 35.2366 12.6622 39.0993 12.6622C43.0766 12.6622 46.3122 16.0585 46.3122 20.2298V21.7417ZM17.4607 2.54832C17.4607 3.00757 17.8407 3.37992 18.3093 3.37992C18.7779 3.37992 19.1578 3.00757 19.1578 2.54832C19.1578 2.08907 18.7779 1.71672 18.3093 1.71672C17.8407 1.71672 17.4607 2.08907 17.4607 2.54832ZM8.12641 1.71672C8.59503 1.71672 8.97498 2.08907 8.97498 2.54832C8.97498 3.00757 8.59503 3.37992 8.12641 3.37992C7.65778 3.37992 7.27784 3.00757 7.27784 2.54832C7.27784 2.08907 7.65778 1.71672 8.12641 1.71672ZM2.1864 18.3487V18.4153C2.1864 23.0415 5.82508 27.1121 10.8418 28.0951C11.229 28.1735 11.6202 28.2315 12.0137 28.2689C13.2091 28.3859 14.4158 28.3279 15.5938 28.0968C20.6106 27.1121 24.2493 23.0415 24.2493 18.4153V18.3487H22.5521V18.4435C22.4873 22.0592 20.0313 25.2137 16.4899 26.2298C14.6351 26.8054 12.6441 26.8054 10.7892 26.2298C7.24952 25.2124 4.79576 22.058 4.73212 18.4435V18.3487H2.1864ZM12.3693 33.3176C11.6056 33.3176 11.5207 32.1533 11.5207 31.6544V29.8897C11.5615 29.8947 11.603 29.8979 11.6445 29.9011C11.672 29.9032 11.6995 29.9053 11.7269 29.908C11.7905 29.9149 11.8542 29.9203 11.9178 29.9258L11.9815 29.9313C12.3828 29.9662 12.7876 29.9895 13.1958 29.9903H13.2382C13.6455 29.9903 14.0494 29.9662 14.4483 29.9313L14.5303 29.9243C14.5899 29.9193 14.6508 29.9142 14.7105 29.908C14.7415 29.9045 14.7731 29.9021 14.8047 29.8997C14.8414 29.8969 14.8781 29.8942 14.9141 29.8897V31.6544C14.9141 32.1533 14.8293 33.3176 14.0656 33.3176H12.3693ZM41.2207 27.4963C41.2207 29.7927 43.1204 31.6543 45.4636 31.6543C47.8056 31.6516 49.7037 29.7917 49.7064 27.4963C49.7064 25.2 47.8068 23.3383 45.4636 23.3383C43.1204 23.3383 41.2207 25.2 41.2207 27.4963Z" fill="black"/>
</svg>
